<svg width="21" height="21" viewBox="0 0 21 21" fill="none" xmlns="http://www.w3.org/2000/svg">
<path d="M1.49072 10.5385V9.80716C1.49072 6.07597 2.98137 4.5835 6.70799 4.5835H11.1799C14.9066 4.5835 16.3972 6.07597 16.3972 9.80716V14.2846C16.3972 18.0158 14.9066 19.5082 11.1799 19.5082H10.4346" stroke="#F2F2F2" stroke-width="1.5" stroke-linecap="round" stroke-linejoin="round"/>
<path d="M5.06836 4.57117C5.06836 0.839981 6.55901 1.00102 10.2856 1.00102H14.7576C18.4842 1.00102 19.9749 2.49349 19.9749 6.22468V10.7021C19.9749 14.4333 20.4983 15.9258 16.7717 15.9258" stroke="#F2F2F2" stroke-width="1.5" stroke-linecap="round" stroke-linejoin="round"/>
<path d="M9.68896 11.2993L13.423 7.55322H10.4343" stroke="#F2F2F2" stroke-width="1.5" stroke-linecap="round" stroke-linejoin="round"/>
<path d="M13.4233 7.55322V10.5456" stroke="#F2F2F2" stroke-width="1.5" stroke-linecap="round" stroke-linejoin="round"/>
<path d="M8.19864 15.1422V17.157C8.19864 18.836 7.52785 19.5076 5.85087 19.5076H3.8385C2.16151 19.5076 1.49072 18.836 1.49072 17.157V15.1422C1.49072 13.4631 2.16151 12.7915 3.8385 12.7915H5.85087C7.52785 12.7915 8.19864 13.4631 8.19864 15.1422Z" stroke="#F2F2F2" stroke-width="1.5" stroke-linecap="round" stroke-linejoin="round"/>
</svg>
