<svg width="20" height="20" viewBox="0 0 20 20" fill="none" xmlns="http://www.w3.org/2000/svg">
<path d="M1.6665 8.3165V7.49984C1.6665 3.33317 3.33317 1.6665 7.49984 1.6665H12.4998C16.6665 1.6665 18.3332 3.33317 18.3332 7.49984V12.4998C18.3332 16.6665 16.6665 18.3332 12.4998 18.3332H11.6665" stroke="#F2F2F2" stroke-width="1.5" stroke-linecap="round" stroke-linejoin="round"/>
<path d="M10.8335 9.16673L15.0085 4.9834H11.6668" stroke="#F2F2F2" stroke-width="1.5" stroke-linecap="round" stroke-linejoin="round"/>
<path d="M15.0083 4.9834V8.32506" stroke="#F2F2F2" stroke-width="1.5" stroke-linecap="round" stroke-linejoin="round"/>
<path d="M9.1665 13.4585V15.7085C9.1665 17.5835 8.4165 18.3335 6.5415 18.3335H4.2915C2.4165 18.3335 1.6665 17.5835 1.6665 15.7085V13.4585C1.6665 11.5835 2.4165 10.8335 4.2915 10.8335H6.5415C8.4165 10.8335 9.1665 11.5835 9.1665 13.4585Z" stroke="#F2F2F2" stroke-width="1.5" stroke-linecap="round" stroke-linejoin="round"/>
</svg>
