<svg width="161" height="121" viewBox="0 0 161 121" fill="none" xmlns="http://www.w3.org/2000/svg">
<rect width="161" height="121" rx="20" fill="#535353"/>
<path d="M93.1 67.2L89.1875 58.0625C87.8625 54.9625 85.425 54.8375 83.7875 57.7875L81.425 62.05C80.225 64.2125 77.9875 64.4 76.4375 62.4625L76.1625 62.1125C74.55 60.0875 72.275 60.3375 71.1125 62.65L68.9625 66.9625C67.45 69.9625 69.6375 73.5 72.9875 73.5H88.9375C92.1875 73.5 94.375 70.1875 93.1 67.2Z" stroke="#EAECF0" stroke-width="1.5" stroke-linecap="round" stroke-linejoin="round"/>
<path d="M74.7125 56C76.7836 56 78.4625 54.3211 78.4625 52.25C78.4625 50.1789 76.7836 48.5 74.7125 48.5C72.6415 48.5 70.9625 50.1789 70.9625 52.25C70.9625 54.3211 72.6415 56 74.7125 56Z" stroke="#EAECF0" stroke-width="1.5" stroke-linecap="round" stroke-linejoin="round"/>
</svg>
